<svg viewBox="0 0 200 60" xmlns="http://www.w3.org/2000/svg" data-name="Layer 1" id="Layer_1"><defs><style>.cls-1{fill:#93d500;}.cls-2{fill:#006838;}</style></defs><path d="M50.88,12.76s-20,0-25.43,0c-.62,0-.89.14-1,.81-.26,1.83-.61,3.65-.94,5.46-.09.44,0,.62.47.61,5.18-.13,12.9.72,19.16-2h.06a.26.26,0,0,1,.26.26.25.25,0,0,1-.14.23c-1.31.55-3.26,1.58-7,5.66-1.92,2-8.67,9-10.12,10.47L20,40.64a2,2,0,0,0-.65,1c-.24,1.42-.5,2.84-.73,4.25-.12.72-.1.73.61.73,0,0,20,0,25.43,0,.62,0,.89-.13,1-.8.27-1.83.61-3.65.95-5.46.08-.44,0-.63-.48-.61-5.17.12-12.9-.72-19.16,2h-.06a.27.27,0,0,1-.26-.27.27.27,0,0,1,.14-.23c1.31-.54,3.26-1.57,7-5.65,1.92-2,14.3-14.77,16.39-16.92a1.92,1.92,0,0,0,.65-1c.24-1.42.5-2.84.73-4.26C51.61,12.77,51.6,12.76,50.88,12.76Z" class="cls-1"></path><path d="M61.2,27.86a7.29,7.29,0,0,1,4.36-4.79A10.73,10.73,0,0,1,72,22.79a3.83,3.83,0,0,1,2.77,2.46,5.12,5.12,0,0,1,.28,1.69c0,.29.08.49.43.49h6.15c.3,0,.44-.14.43-.43s0-.81-.06-1.21a8.85,8.85,0,0,0-6-8,18.77,18.77,0,0,0-11.92-.11,14,14,0,0,0-8,6.33,19.14,19.14,0,0,0-2.35,5.91,22.39,22.39,0,0,0-.44,9.6,8.88,8.88,0,0,0,7.08,7.37,15.1,15.1,0,0,0,4.18.35,11.18,11.18,0,0,0,5.09-1.39A13.05,13.05,0,0,0,75,40.38c.09-.18.2-.46.38-.39s.05.23,0,.4a25,25,0,0,1-3.46,5.78c-.26.37-.08.56.39.56,1.75,0,4.69,0,6.44,0,.42,0,.58-.13.66-.55.84-4.92,1.7-9.83,2.55-14.74.12-.66.09-.71-.57-.71-2.12,0-10.61,0-12.75,0-.46,0-.66.15-.74.61-.24,1.23-.53,2.44-.8,3.67-.19.85-.19.85.67.85h5.89c.24,0,.58-.08.42.37A7.25,7.25,0,0,1,69.74,41a10.87,10.87,0,0,1-5.9.33,4.42,4.42,0,0,1-3.78-3.8,12,12,0,0,1-.12-3.43A24.24,24.24,0,0,1,61.2,27.86Z" class="cls-2"></path><path d="M180.93,16.76c-2,0-4,0-6,0-.55,0-.73.2-.82.71a95.1,95.1,0,0,0-1.36,11.68c0,.18,0,.47-.19.49s-.24-.3-.28-.48a6.42,6.42,0,0,0-6.12-5.26,11,11,0,0,0-10.82,5.67,17.61,17.61,0,0,0-2.32,10.84,7.23,7.23,0,0,0,2.14,4.69,8.36,8.36,0,0,0,7.28,2,9.92,9.92,0,0,0,7.67-5.34c.09-.16.16-.46.36-.38s.08.36,0,.55a38.18,38.18,0,0,1-1.83,4.09c-.23.41,0,.61.44.6,1,0,2.66,0,3.69,0h2.94c1,0,1,0,1.17-1,1-5.88,3.55-22.74,4.54-28.28C181.53,16.93,181.42,16.75,180.93,16.76ZM170.5,38.13a6,6,0,0,1-5.3,3.29,7.28,7.28,0,0,1-2-.12,3.26,3.26,0,0,1-2.71-3.1c0-.33,0-.66,0-1a9.48,9.48,0,0,1,1.29-5,5.2,5.2,0,0,1,4.35-2.56,7.74,7.74,0,0,1,2,.08,3.82,3.82,0,0,1,3.41,3.91A8.6,8.6,0,0,1,170.5,38.13Z" class="cls-2"></path><path d="M129.15,24.34a22.19,22.19,0,0,0-6.8-.41,16.62,16.62,0,0,0-4.57.9,7.76,7.76,0,0,0-5.43,6.24c-.11.68-.09.7.59.7,2,0,3.93,0,5.9,0,.47,0,.69-.12.77-.63a2.57,2.57,0,0,1,1.82-2.29,8.25,8.25,0,0,1,4-.08,1.43,1.43,0,0,1,1.17,1.49,12.06,12.06,0,0,1-.3,2.6.64.64,0,0,1-.59.6c-2,.42-4,.86-5.93,1.3a24.33,24.33,0,0,0-6.34,2A6.65,6.65,0,0,0,110,40.91c-.93,3.31.33,5.57,3.53,6.15a10.84,10.84,0,0,0,11.25-4.78c.13-.2.31-.63.49-.53s0,.35-.08.51A28.52,28.52,0,0,1,123,46c-.38.54-.21.65.46.65,2,0,4.79,0,6.8,0,.6,0,.8-.21.89-.77.59-3.45,2.58-13.89,2.57-15.72C133.72,27,132.23,25.11,129.15,24.34Zm-3.63,13.33a5.84,5.84,0,0,1-5.92,4.72h-.29c-.65,0-1.38,0-1.66-.72a2.17,2.17,0,0,1,.47-2.23,2.67,2.67,0,0,1,1.32-.83c1.88-.59,3.81-.94,5.72-1.41C125.6,37.09,125.59,37.35,125.52,37.67Z" class="cls-2"></path><path d="M109.18,24.57c-2.07,0-4.13,0-6.2,0a.5.5,0,0,0-.58.49c-.21,1.26-.44,2.53-.68,3.79-.47,2.46-.76,5-1.41,7.4S98.13,41,94.73,41.14c-2.12.1-3.45-.59-3.47-3A12.19,12.19,0,0,1,91.43,36c.62-3.61,1.23-7.21,1.87-10.81.1-.54-.07-.65-.55-.64-1,0-2,0-3,0s-2,0-3,0c-.47,0-.68.12-.77.63-.6,3.55-1.23,7.09-1.85,10.64a20.68,20.68,0,0,0-.47,6.08,5.48,5.48,0,0,0,4.19,5,9.46,9.46,0,0,0,5.69-.29,12,12,0,0,0,6.18-5.38c.09-.15.15-.44.4-.32s0,.32,0,.47a35.1,35.1,0,0,1-2.39,4.37c-.44.76-.24.84.6.84h6.53c1,0,1,0,1.12-1,.73-4.16,3.14-17.8,3.6-20.47C109.66,24.87,109.73,24.56,109.18,24.57Z" class="cls-2"></path><path d="M154.33,26.6c.11-.65.52-2.81.52-2.81-9.18,0-10.55,6.88-10.87,7.55-.07.14-.16.31-.35.22s0-.24,0-.37.06-.18.08-.28q.82-2.81,1.63-5.6c.21-.72.19-.73-.53-.74h-5.73c-.88,0-.86,0-1,.87-.6,3.45-3,17.14-3.61,20.53-.09.48,0,.69.56.68,2,0,3.9,0,5.85,0,.59,0,.81-.19.9-.76.45-2.63.91-5.25,1.41-7.87s1.63-4.77,4.09-5.79C148.64,31.65,153.38,30.87,154.33,26.6Z" class="cls-2"></path></svg>